<svg xmlns="http://www.w3.org/2000/svg" viewBox="-14445 -1806 24 24"><defs><style>.a{fill:none;}</style></defs><g transform="translate(-14442 -1803)"><path d="M0,10.3V8.4H10.3c.2,0,.2,0,.3-.2a2.712,2.712,0,0,1,2.6-1.7,2.712,2.712,0,0,1,2.6,1.7c.1.1.1.2.2.2h2.6v1.9H16c-.1,0-.2,0-.3.2a2.712,2.712,0,0,1-2.6,1.7,2.712,2.712,0,0,1-2.6-1.7c-.1-.1-.1-.2-.3-.2H0ZM13.3,8.4a1.063,1.063,0,0,0-1,.9.987.987,0,0,0,.9,1,1.063,1.063,0,0,0,1-.9A.923.923,0,0,0,13.3,8.4Z"/><path d="M0,16.8V14.9H2.6c.1,0,.2,0,.2-.1A2.907,2.907,0,0,1,5.4,13,2.865,2.865,0,0,1,8,14.7c.1.1.1.1.2.1H18.5v1.9H8.2c-.1,0-.2,0-.3.2a2.712,2.712,0,0,1-2.6,1.7,2.712,2.712,0,0,1-2.6-1.7c-.1-.1-.1-.2-.3-.2H0C.1,16.8.1,16.8,0,16.8Zm5.4-1.9a.9.9,0,0,0-.9.9.871.871,0,0,0,1,.9.9.9,0,0,0,.9-.9A.923.923,0,0,0,5.4,14.9Z"/><path d="M0,3.8V1.9H2.6c.1,0,.2,0,.2-.2A2.712,2.712,0,0,1,5.4,0,2.761,2.761,0,0,1,8,1.7c.1.1.1.2.3.2H18.6V3.8H8.3c-.1,0-.2,0-.3.2A2.777,2.777,0,0,1,5.4,5.6,2.712,2.712,0,0,1,2.8,3.9c0-.1-.1-.1-.2-.1H0Zm5.4,0A.9.9,0,1,0,5.4,2a.871.871,0,0,0-.9,1A.965.965,0,0,0,5.4,3.8Z"/></g><rect class="a" width="24" height="24" transform="translate(-14445 -1806)"/></svg>