<svg xmlns="http://www.w3.org/2000/svg" viewBox="0 0 31.359 45.625"><g transform="translate(-4.444 -13.041)"><g transform="translate(4.444 13.041)"><path d="M26.133,69.891a8.8,8.8,0,1,1-10.869-8.613c-.071-1.152-.123-2.514-.158-4.15A12.89,12.89,0,1,0,29.382,74.406c.2-3.063-.217-3.808-.381-3.978C28.919,70.343,28.408,69.939,26.133,69.891Z" transform="translate(-4.444 -37.088)"/><circle cx="4.486" cy="4.486" r="4.486" transform="translate(9.915)"/><path d="M47.4,54.5c-1.78-1.841-4.348-2.478-7.875-2.478-.408,0-.829.009-1.263.025a3.923,3.923,0,0,0-.336-.475c-.082-.5-.162-1.289-.231-2.513a10.91,10.91,0,0,0,6.357,1.809,2.045,2.045,0,1,0,0-4.091c-1.349,0-5.026,0-6.528-4.93,0-.616-.006-1.256-.006-1.945a3.864,3.864,0,0,0-7.727,0c0,2.162.015,4,.047,5.591.032,1.619.082,2.97.151,4.11q.042.689.092,1.283a17.692,17.692,0,0,0,.543,3.379,4.831,4.831,0,0,0,2.486,3.213h0c.045.022.09.044.135.064.076.035.154.067.234.1l.075.027.065.021a4.364,4.364,0,0,0,1.34.227,3.853,3.853,0,0,0,1.486-.3c.934-.078,2.016-.144,3.057-.144,1.741,0,3.364.186,3.975.819.007.008.012.019.02.027A2.493,2.493,0,0,1,44,59.48c.428,2.025-.062,5.589-.249,6.945a2.727,2.727,0,1,0,5.4.747C49.963,61.306,49.953,57.141,47.4,54.5Z" transform="translate(-18.27 -25.587)"/></g></g></svg>