<svg xmlns="http://www.w3.org/2000/svg" viewBox="-14442 -1812 24 24"><defs><style>.a{fill:none;}</style></defs><g transform="translate(-14762 -2299)"><g transform="translate(325.417 490.627)"><path d="M11.238,13.031H2.422a1.321,1.321,0,0,0-1.391.947,1.449,1.449,0,0,0,.913,1.911,1.636,1.636,0,0,0,.453.059H12.8c.059,0,.126-.008.209-.008V3.36h1.039V17.078H2.422A2.324,2.324,0,0,1,0,14.673V2.38A2.326,2.326,0,0,1,2.4,0h8.522c.268,0,.335.067.335.335V12.821C11.254,12.88,11.246,12.939,11.238,13.031ZM3.025,7.777H8.774V6.654H3.025ZM4.4,5.288h3V4.156h-3Z"/><path d="M30.12,166.031v1.156H21.3c-.461,0-.746-.285-.687-.67a.559.559,0,0,1,.545-.486c.084-.008.168,0,.251,0h8.623A.142.142,0,0,1,30.12,166.031Z" transform="translate(-18.882 -152.112)"/></g><rect class="a" width="24" height="24" transform="translate(320 487)"/></g></svg>