<svg xmlns="http://www.w3.org/2000/svg" viewBox="-7742 7140 24 24"><defs><style>.a{fill:none;}</style></defs><g transform="translate(-7742 7140)"><path d="M3,17.2V21H6.8l11-11.1L14,6.1ZM20.7,7a.967.967,0,0,0,0-1.4L18.4,3.3a.967.967,0,0,0-1.4,0L15.2,5.1,19,8.9C18.9,8.9,20.7,7,20.7,7Z"/><path class="a" d="M0,0H24V24H0Z"/><path d="M19.2,11.4l-3.3,3.3h2.5a4.951,4.951,0,0,1-5,5,4.645,4.645,0,0,1-2.3-.6L9.9,20.3a6.092,6.092,0,0,0,3.6,1,6.7,6.7,0,0,0,6.7-6.7h2.5ZM5.9,8.4A5.251,5.251,0,0,1,11,3a5.421,5.421,0,0,1,2.5.6l1.3-1.3a6.97,6.97,0,0,0-3.8-1A6.981,6.981,0,0,0,4.1,8.5l-2.7.1L5.1,12,8.5,8.4Z"/></g></svg>