<svg id="Layer_1" data-name="Layer 1" xmlns="http://www.w3.org/2000/svg" viewBox="0 0 24 24"><defs><style>.cls-1{fill:none;}</style></defs><title>run_workflow</title><rect class="cls-1" width="24" height="24"/><path d="M18.46,9.15l-3.29-3.3a3.35,3.35,0,0,0,.37-1.54,3.38,3.38,0,1,0-6.4,1.52L6,9,4.59,7.61.67,11.53l3.92,3.92,3.92-3.92L7.12,10.15l3.09-3.09a3.43,3.43,0,0,0,3.9,0l3.26,3.27V14l-2.84,2.84A3.39,3.39,0,1,0,15.67,18l3.06-3.06h4.4V9.15Zm-5.7,8.79A1.76,1.76,0,1,1,11,19.7,1.76,1.76,0,0,1,12.77,17.94Zm-.6-15.39A1.76,1.76,0,1,1,10.41,4.3,1.76,1.76,0,0,1,12.17,2.54Zm9.33,8.22v2.52H19V10.77Z"/><rect class="cls-1" width="24" height="24"/></svg>